<svg width="113" height="30" viewBox="0 0 113 30" fill="none" xmlns="http://www.w3.org/2000/svg">
<path d="M23.8875 23.838L14.5309 29.292L14.5309 29.2919L14.5269 29.2943C14.0223 29.5975 13.4309 29.7109 12.8555 29.6189L8.43822 17.595L23.8875 23.838ZM23.8875 23.838L13.207 13.7179L13.2066 13.7175C13.0948 13.6113 12.9492 13.5508 12.7974 13.5467C12.6457 13.5425 12.4971 13.5947 12.38 13.6946L12.3794 13.695L8.62392 16.8817L23.8875 23.838ZM8.41972 17.2076C8.38627 17.3355 8.39274 17.4708 8.43814 17.5948L8.41972 17.2076ZM8.41972 17.2076C8.45316 17.0797 8.52469 16.966 8.62379 16.8818L8.41972 17.2076ZM1.03067 7.22394L8.40054 27.232L1.65079 23.2863L1.65054 23.2862C1.25583 23.0559 0.927524 22.7242 0.699062 22.3241C0.470585 21.9239 0.350151 21.4696 0.350175 21.0069V9.00547H0.350195L0.350154 9.00166C0.345703 8.59273 0.437866 8.18879 0.618775 7.82352C0.727539 7.60392 0.866454 7.40217 1.03067 7.22394ZM6.72794 12.9681L6.72795 12.9681L6.72699 12.9655L3.94283 5.37034L11.9293 0.695557C12.3268 0.468925 12.775 0.35 13.2307 0.35C13.6864 0.35 14.1346 0.468933 14.5321 0.695578C14.5326 0.695868 14.5331 0.696159 14.5336 0.69645L19.2137 3.43355L7.72597 13.2334L7.72597 13.2333L7.72362 13.2354C7.64651 13.3024 7.55482 13.3491 7.45653 13.372C7.35826 13.3948 7.25601 13.3932 7.15846 13.3673C7.06089 13.3413 6.97063 13.2917 6.89557 13.2223C6.82048 13.1529 6.76284 13.0657 6.72794 12.9681ZM26.1078 21.2771L15.889 11.6237L15.8882 11.623C15.8231 11.5619 15.7714 11.4872 15.7367 11.4037C15.7019 11.3202 15.6851 11.23 15.6874 11.1392C15.6898 11.0484 15.7112 10.9593 15.7501 10.8778C15.789 10.7963 15.8445 10.7245 15.9126 10.6669L15.9134 10.6662L22.2867 5.24002L24.8108 6.71339L24.8119 6.71404C25.2087 6.94369 25.5392 7.27536 25.7697 7.67603C26.0001 8.07656 26.1223 8.53172 26.1238 8.9957C26.1238 8.9959 26.1238 8.99611 26.1238 8.99631V20.9958C26.1238 20.996 26.1238 20.9962 26.1238 20.9964C26.1236 21.0904 26.1182 21.184 26.1078 21.2771Z" fill="white" stroke="#27272A" stroke-width="0.7"/>
<path d="M35.8397 7.66938H39.1979V13.9458L44.8811 7.66938H49.0358L43.0513 14.4269C43.5679 15.1559 44.5223 16.5191 45.9144 18.5165C47.3065 20.4993 48.347 21.9791 49.0358 22.9559H45.1179L40.7048 16.92L39.1979 18.6258V22.9559H35.8397V7.66938Z" fill="white"/>
<path d="M60.3018 22.9559H57.2664V21.5344C56.4341 22.5987 55.4008 23.1309 54.1665 23.1309C52.9467 23.1309 51.9205 22.7737 51.0881 22.0593C50.2558 21.3303 49.8396 20.3681 49.8396 19.1726C49.8396 17.9625 50.2701 17.0585 51.1312 16.4608C51.9923 15.863 53.1691 15.5641 54.6617 15.5641H57.0727V15.4985C57.0727 14.2447 56.4197 13.6178 55.1137 13.6178C54.554 13.6178 53.9584 13.7344 53.327 13.9677C52.7099 14.1864 52.186 14.4634 51.7555 14.7987L50.3132 12.6774C51.8344 11.5548 53.5709 10.9935 55.5227 10.9935C56.9292 10.9935 58.0773 11.3507 58.9671 12.0651C59.8569 12.7795 60.3018 13.9094 60.3018 15.4548V22.9559ZM57.0512 18.4727V17.9041H55.0276C53.736 17.9041 53.0902 18.3124 53.0902 19.1288C53.0902 19.5516 53.2409 19.8797 53.5422 20.1129C53.858 20.3316 54.3029 20.441 54.8769 20.441C55.451 20.441 55.9533 20.266 56.3838 19.9161C56.8287 19.5516 57.0512 19.0705 57.0512 18.4727Z" fill="white"/>
<path d="M66.4747 22.9559H63.2456V6.729H66.4747V22.9559Z" fill="white"/>
<path d="M72.7605 22.9559H69.5314V6.729H72.7605V15.0612L76.3555 11.1684H80.4241L76.0111 15.9359L80.5964 22.9559H76.7645L73.8153 18.4509L72.7605 19.5662V22.9559Z" fill="white"/>
<path d="M89.8041 17.5324V11.1903H93.0547V22.9559H89.8041V21.4032C89.0004 22.555 87.9599 23.1309 86.6827 23.1309C85.4197 23.1309 84.3577 22.7299 83.4966 21.9281C82.6356 21.1116 82.205 19.9088 82.205 18.3197V11.1903H85.4556V17.598C85.4556 19.4058 86.1086 20.3098 87.4146 20.3098C88.0604 20.3098 88.6201 20.0765 89.0937 19.6099C89.5673 19.1288 89.8041 18.4363 89.8041 17.5324Z" fill="white"/>
<path d="M99.3331 22.9559H96.104V6.729H99.3331V22.9559Z" fill="white"/>
<path d="M112.228 22.9559H109.192V21.5344C108.36 22.5987 107.327 23.1309 106.092 23.1309C104.873 23.1309 103.846 22.7737 103.014 22.0593C102.182 21.3303 101.765 20.3681 101.765 19.1726C101.765 17.9625 102.196 17.0585 103.057 16.4608C103.918 15.863 105.095 15.5641 106.588 15.5641H108.999V15.4985C108.999 14.2447 108.346 13.6178 107.04 13.6178C106.48 13.6178 105.884 13.7344 105.253 13.9677C104.636 14.1864 104.112 14.4634 103.681 14.7987L102.239 12.6774C103.76 11.5548 105.497 10.9935 107.449 10.9935C108.855 10.9935 110.003 11.3507 110.893 12.0651C111.783 12.7795 112.228 13.9094 112.228 15.4548V22.9559ZM108.977 18.4727V17.9041H106.954C105.662 17.9041 105.016 18.3124 105.016 19.1288C105.016 19.5516 105.167 19.8797 105.468 20.1129C105.784 20.3316 106.229 20.441 106.803 20.441C107.377 20.441 107.879 20.266 108.31 19.9161C108.755 19.5516 108.977 19.0705 108.977 18.4727Z" fill="white"/>
</svg>
