<svg width="398" height="107" viewBox="0 0 398 107" fill="none" xmlns="http://www.w3.org/2000/svg">
<path d="M4.28395 23.6131L32.876 99.9611L5.34563 84.1323C3.72062 83.1998 2.37107 81.8578 1.43278 80.2414C0.494484 78.6251 0.000536995 76.7913 0.000633188 74.9247V32.1195C-0.0176791 30.4647 0.361456 28.8294 1.10649 27.3499C1.85151 25.8703 2.94089 24.5892 4.28395 23.6131Z" fill="#FF1744"/>
<path d="M23.2019 46.6733L12.7408 18.604L42.6233 1.40001C44.257 0.482247 46.1013 0 47.9774 0C49.8535 0 51.6978 0.482247 53.3316 1.40001L71.856 12.0558L28.8398 48.1487C28.4047 48.5203 27.8855 48.7813 27.3267 48.9092C26.768 49.0371 26.1863 49.0282 25.6318 48.883C25.0773 48.7379 24.5665 48.461 24.1432 48.0761C23.72 47.6912 23.397 47.2098 23.2019 46.6733Z" fill="#FF1744"/>
<path d="M88.7239 85.2617L53.3316 105.553C51.0267 106.915 48.2812 107.336 45.671 106.728L29.4073 63.1851C29.1532 62.5036 29.1171 61.7606 29.3039 61.0579C29.4906 60.3552 29.8912 59.7272 30.4506 59.2598L44.0694 47.8937C44.7317 47.3387 45.5758 47.045 46.4413 47.0685C47.3069 47.0921 48.1336 47.4311 48.7645 48.0212L88.7239 85.2617Z" fill="#FF1744"/>
<path d="M96 32.0831V74.8882C95.9968 76.0482 95.7988 77.1994 95.4143 78.2944L56.7454 42.3654C56.3779 42.0259 56.0873 41.6125 55.8928 41.1526C55.6983 40.6926 55.6044 40.1968 55.6174 39.698C55.6304 39.1991 55.7499 38.7088 55.9681 38.2595C56.1863 37.8102 56.498 37.4123 56.8827 37.0922L80.6789 17.165L90.6093 22.8663C92.2423 23.796 93.6003 25.1373 94.5467 26.7554C95.493 28.3734 95.9943 30.211 96 32.0831Z" fill="#FF1744"/>
<path d="M121 27.354H133.178V49.74L153.786 27.354H168.852L147.151 51.456C149.024 54.056 152.485 58.918 157.533 66.042C162.581 73.114 166.354 78.392 168.852 81.876H154.645L138.642 60.348L133.178 66.432V81.876H121V27.354Z" fill="#424852"/>
<path d="M209.705 81.876H198.698V76.806C195.68 80.602 191.933 82.5 187.457 82.5C183.034 82.5 179.313 81.226 176.294 78.678C173.276 76.078 171.767 72.646 171.767 68.382C171.767 64.066 173.328 60.842 176.45 58.71C179.573 56.578 183.84 55.512 189.253 55.512H197.996V55.278C197.996 50.806 195.628 48.57 190.892 48.57C188.862 48.57 186.703 48.986 184.413 49.818C182.175 50.598 180.276 51.586 178.714 52.782L173.484 45.216C179.001 41.212 185.298 39.21 192.375 39.21C197.475 39.21 201.639 40.484 204.865 43.032C208.092 45.58 209.705 49.61 209.705 55.122V81.876ZM197.918 65.886V63.858H190.58C185.896 63.858 183.554 65.314 183.554 68.226C183.554 69.734 184.101 70.904 185.193 71.736C186.338 72.516 187.952 72.906 190.033 72.906C192.115 72.906 193.936 72.282 195.498 71.034C197.111 69.734 197.918 68.018 197.918 65.886Z" fill="#424852"/>
<path d="M232.089 81.876H220.38V24H232.089V81.876Z" fill="#424852"/>
<path d="M254.883 81.876H243.174V24H254.883V53.718L267.919 39.834H282.673L266.67 56.838L283.298 81.876H269.403L258.708 65.808L254.883 69.786V81.876Z" fill="#424852"/>
<path d="M316.687 62.532V39.912H328.474V81.876H316.687V76.338C313.773 80.446 310 82.5 305.368 82.5C300.788 82.5 296.937 81.07 293.815 78.21C290.692 75.298 289.131 71.008 289.131 65.34V39.912H300.918V62.766C300.918 69.214 303.286 72.438 308.022 72.438C310.364 72.438 312.394 71.606 314.111 69.942C315.828 68.226 316.687 65.756 316.687 62.532Z" fill="#424852"/>
<path d="M351.241 81.876H339.532V24H351.241V81.876Z" fill="#424852"/>
<path d="M398 81.876H386.993V76.806C383.975 80.602 380.228 82.5 375.752 82.5C371.329 82.5 367.608 81.226 364.589 78.678C361.571 76.078 360.062 72.646 360.062 68.382C360.062 64.066 361.623 60.842 364.745 58.71C367.868 56.578 372.135 55.512 377.548 55.512H386.291V55.278C386.291 50.806 383.923 48.57 379.187 48.57C377.157 48.57 374.998 48.986 372.708 49.818C370.47 50.598 368.57 51.586 367.009 52.782L361.779 45.216C367.295 41.212 373.592 39.21 380.67 39.21C385.77 39.21 389.934 40.484 393.16 43.032C396.387 45.58 398 49.61 398 55.122V81.876ZM386.213 65.886V63.858H378.875C374.191 63.858 371.849 65.314 371.849 68.226C371.849 69.734 372.396 70.904 373.488 71.736C374.633 72.516 376.247 72.906 378.328 72.906C380.41 72.906 382.231 72.282 383.793 71.034C385.406 69.734 386.213 68.018 386.213 65.886Z" fill="#424852"/>
</svg>
